<?xml version="1.0" encoding="utf-8"?>
<svg version="1.1" xmlns:xlink="http://www.w3.org/1999/xlink" width="52px" height="40px" xmlns="http://www.w3.org/2000/svg">
  <g transform="matrix(1 0 0 1 -211 -231 )">
    <path d="M 24.7685546875 17.0703125  C 22.8642578125 19.0234375  20.56640625 20  17.875 20  C 15.18359375 20  12.8857421875 19.0234375  10.9814453125 17.0703125  C 9.0771484375 15.1171875  8.125 12.7604166666667  8.125 10  C 8.125 7.23958333333333  9.0771484375 4.8828125  10.9814453125 2.9296875  C 12.8857421875 0.9765625  15.18359375 0  17.875 0  C 20.56640625 0  22.8642578125 0.9765625  24.7685546875 2.9296875  C 26.6728515625 4.8828125  27.625 7.23958333333333  27.625 10  C 27.625 12.7604166666667  26.6728515625 15.1171875  24.7685546875 17.0703125  Z M 42.25 14.1666666666667  L 42.25 23.3333333333333  L 51.1875 23.3333333333333  C 51.4075520833333 23.3333333333333  51.5979817708333 23.4157986111111  51.7587890625 23.5807291666667  C 51.9195963541667 23.7456597222222  52 23.9409722222222  52 24.1666666666667  L 52 29.1666666666667  C 52 29.3923611111111  51.9195963541667 29.5876736111111  51.7587890625 29.7526041666667  C 51.5979817708333 29.9175347222222  51.4075520833333 30  51.1875 30  L 42.25 30  L 42.25 39.1666666666667  C 42.25 39.3923611111111  42.1695963541667 39.5876736111111  42.0087890625 39.7526041666667  C 41.8479817708333 39.9175347222222  41.6575520833333 40  41.4375 40  L 36.5625 40  C 36.3424479166667 40  36.1520182291667 39.9175347222222  35.9912109375 39.7526041666667  C 35.8304036458333 39.5876736111111  35.75 39.3923611111111  35.75 39.1666666666667  L 35.75 30  L 26.8125 30  C 26.5924479166667 30  26.4020182291667 29.9175347222222  26.2412109375 29.7526041666667  C 26.0804036458333 29.5876736111111  26 29.3923611111111  26 29.1666666666667  L 26 24.1666666666667  C 26 23.9409722222222  26.0804036458333 23.7456597222222  26.2412109375 23.5807291666667  C 26.4020182291667 23.4157986111111  26.5924479166667 23.3333333333333  26.8125 23.3333333333333  L 35.75 23.3333333333333  L 35.75 14.1666666666667  C 35.75 13.9409722222222  35.8304036458333 13.7456597222222  35.9912109375 13.5807291666667  C 36.1520182291667 13.4157986111111  36.3424479166667 13.3333333333333  36.5625 13.3333333333333  L 41.4375 13.3333333333333  C 41.6575520833333 13.3333333333333  41.8479817708333 13.4157986111111  42.0087890625 13.5807291666667  C 42.1695963541667 13.7456597222222  42.25 13.9409722222222  42.25 14.1666666666667  Z M 23.5625 24.1666666666667  L 23.5625 29.1666666666667  C 23.5625 30.0694444444444  23.8841145833333 30.8506944444444  24.52734375 31.5104166666667  C 25.1705729166667 32.1701388888889  25.9322916666667 32.5  26.8125 32.5  L 33.3125 32.5  L 33.3125 38.6979166666667  C 32.1614583333333 39.5659722222222  30.7141927083333 40  28.970703125 40  L 6.779296875 40  C 4.73111979166667 40  3.08919270833333 39.4010416666667  1.853515625 38.203125  C 0.617838541666667 37.0052083333333  0 35.3559027777778  0 33.2552083333333  C 0 32.3350694444444  0.0296223958333333 31.4366319444444  0.0888671875 30.5598958333333  C 0.148111979166667 29.6831597222222  0.2666015625 28.7369791666667  0.4443359375 27.7213541666667  C 0.6220703125 26.7057291666667  0.846354166666667 25.7638888888889  1.1171875 24.8958333333333  C 1.38802083333333 24.0277777777778  1.751953125 23.1814236111111  2.208984375 22.3567708333333  C 2.666015625 21.5321180555556  3.19075520833333 20.8289930555556  3.783203125 20.2473958333333  C 4.37565104166667 19.6657986111111  5.09928385416667 19.2013888888889  5.9541015625 18.8541666666667  C 6.80891927083333 18.5069444444444  7.75260416666667 18.3333333333333  8.78515625 18.3333333333333  C 9.10677083333333 18.3333333333333  9.43684895833333 18.4809027777778  9.775390625 18.7760416666667  C 11.1126302083333 19.8350694444444  12.4202473958333 20.6293402777778  13.6982421875 21.1588541666667  C 14.9762369791667 21.6883680555556  16.3684895833333 21.953125  17.875 21.953125  C 19.3815104166667 21.953125  20.7737630208333 21.6883680555556  22.0517578125 21.1588541666667  C 23.3297526041667 20.6293402777778  24.6373697916667 19.8350694444444  25.974609375 18.7760416666667  C 26.3131510416667 18.4809027777778  26.6432291666667 18.3333333333333  26.96484375 18.3333333333333  C 29.19921875 18.3333333333333  31.0358072916667 19.1666666666667  32.474609375 20.8333333333333  L 26.8125 20.8333333333333  C 25.9322916666667 20.8333333333333  25.1705729166667 21.1631944444444  24.52734375 21.8229166666667  C 23.8841145833333 22.4826388888889  23.5625 23.2638888888889  23.5625 24.1666666666667  Z " fill-rule="nonzero" fill="#07c160" stroke="none" transform="matrix(1 0 0 1 211 231 )" />
  </g>
</svg>