<?xml version="1.0" encoding="utf-8"?>
<svg version="1.1" xmlns:xlink="http://www.w3.org/1999/xlink" width="30px" height="28px" xmlns="http://www.w3.org/2000/svg">
  <g transform="matrix(1 0 0 1 -181 -382 )">
    <path d="M 28.469387755102 5.59635416666667  C 28.9255702280912 5.77864583333333  29.2797118847539 6.03993055555555  29.53181272509 6.38020833333333  C 30.0120048019208 7.07291666666667  30.1200480192077 7.85677083333333  29.8559423769508 8.73177083333333  L 24.9039615846339 25.2473958333333  C 24.6758703481393 26.0251736111111  24.2166866746699 26.6783854166667  23.5264105642257 27.20703125  C 22.8361344537815 27.7356770833333  22.1008403361345 28  21.3205282112845 28  L 4.69987995198079 28  C 3.77551020408163 28  2.88415366146459 27.6749131944444  2.02581032412965 27.0247395833333  C 1.16746698679472 26.3745659722222  0.570228091236495 25.5755208333333  0.234093637454982 24.6276041666667  C -0.0540216086434574 23.8133680555556  -0.0660264105642257 23.0416666666667  0.198079231692677 22.3125  C 0.198079231692677 22.2638888888889  0.21608643457383 22.0998263888889  0.252100840336134 21.8203125  C 0.288115246098439 21.5407986111111  0.312124849939976 21.3159722222222  0.324129651860744 21.1458333333333  C 0.336134453781513 21.0486111111111  0.31812725090036 20.91796875  0.270108043217287 20.75390625  C 0.222088835534214 20.58984375  0.204081632653061 20.4713541666667  0.21608643457383 20.3984375  C 0.240096038415366 20.2647569444444  0.288115246098439 20.1371527777778  0.360144057623049 20.015625  C 0.432172869147659 19.8940972222222  0.531212484993998 19.7513020833333  0.657262905162065 19.5872395833333  C 0.783313325330132 19.4231770833333  0.882352941176471 19.2803819444444  0.95438175270108 19.1588541666667  C 1.23049219687875 18.6970486111111  1.50060024009604 18.1410590277778  1.76470588235294 17.4908854166667  C 2.02881152460984 16.8407118055556  2.20888355342137 16.2847222222222  2.30492196878751 15.8229166666667  C 2.34093637454982 15.7013888888889  2.34393757503001 15.5190972222222  2.31392557022809 15.2760416666667  C 2.28391356542617 15.0329861111111  2.28091236494598 14.8628472222222  2.30492196878751 14.765625  C 2.34093637454982 14.6319444444444  2.44297719087635 14.4618055555556  2.61104441776711 14.2552083333333  C 2.77911164465786 14.0486111111111  2.88115246098439 13.9088541666667  2.9171668667467 13.8359375  C 3.16926770708283 13.3984375  3.42136854741897 12.8394097222222  3.6734693877551 12.1588541666667  C 3.92557022809124 11.4782986111111  4.07563025210084 10.9314236111111  4.12364945978391 10.5182291666667  C 4.13565426170468 10.4088541666667  4.12064825930372 10.2144097222222  4.07863145258103 9.93489583333333  C 4.03661464585834 9.65538194444444  4.03961584633854 9.48524305555555  4.08763505402161 9.42447916666667  C 4.13565426170468 9.26649305555555  4.26770708283313 9.08116319444444  4.48379351740696 8.86848958333333  C 4.69987995198079 8.65581597222222  4.83193277310924 8.51909722222222  4.87995198079232 8.45833333333333  C 5.10804321728692 8.14236111111111  5.36314525810324 7.62890625  5.6452581032413 6.91796875  C 5.92737094837935 6.20703125  6.09243697478992 5.62065972222222  6.14045618247299 5.15885416666667  C 6.15246098439376 5.06163194444444  6.13445378151261 4.90668402777778  6.08643457382953 4.69401041666667  C 6.03841536614646 4.48133680555555  6.02641056422569 4.3203125  6.05042016806723 4.2109375  C 6.07442977190876 4.11371527777778  6.12845138055222 4.00434027777778  6.2124849939976 3.8828125  C 6.29651860744298 3.76128472222222  6.40456182472989 3.62152777777778  6.53661464585834 3.46354166666667  C 6.6686674669868 3.30555555555555  6.77070828331333 3.17795138888889  6.84273709483794 3.08072916666667  C 6.93877551020408 2.93489583333333  7.03781512605042 2.74956597222222  7.13985594237695 2.52473958333333  C 7.24189675870348 2.29991319444444  7.33193277310924 2.08723958333333  7.40996398559424 1.88671875  C 7.48799519807923 1.68619791666667  7.58403361344538 1.46744791666667  7.69807923169268 1.23046875  C 7.81212484993998 0.993489583333334  7.92917166866747 0.799045138888888  8.04921968787515 0.647135416666666  C 8.16926770708283 0.495225694444441  8.32833133253301 0.352430555555553  8.52641056422569 0.21875  C 8.72448979591837 0.0850694444444406  8.9405762304922 0.0151909722222219  9.17466986794718 0.00911458333333437  C 9.40876350540216 0.00303819444444065  9.69387755102041 0.0364583333333344  10.0300120048019 0.109375  L 10.0120048019208 0.1640625  C 10.46818727491 0.0546875  10.7743097238896 0  10.9303721488595 0  L 24.6338535414166 0  C 25.5222088835534 0  26.2064825930372 0.340277777777775  26.6866746698679 1.02083333333333  C 27.1668667466987 1.70138888888889  27.2749099639856 2.49131944444444  27.0108043217287 3.390625  L 22.0768307322929 19.90625  C 21.6446578631453 21.3524305555556  21.2154861944778 22.28515625  20.7893157262905 22.7044270833333  C 20.3631452581032 23.1236979166667  19.5918367346939 23.3333333333333  18.4753901560624 23  L 2.82713085234094 23  C 2.50300120048019 23.3333333333333  2.27490996398559 23.4244791666667  2.14285714285714 23.6067708333333  C 2.01080432172869 23.8012152777778  2.00480192076831 24.0625  2.12484993997599 24.390625  C 2.41296518607443 25.2413194444444  3.27731092436975 25.6666666666667  4.71788715486194 25.6666666666667  L 21.3385354141657 25.6666666666667  C 21.6866746698679 25.6666666666667  22.0228091236495 25.5724826388889  22.3469387755102 25.3841145833333  C 22.6710684273709 25.1957465277778  22.8811524609844 24.9435763888889  22.9771908763505 24.6276041666667  L 28.3793517406963 6.63541666666667  C 28.4633853541417 6.36805555555555  28.4933973589436 6.02170138888889  28.469387755102 5.59635416666667  Z M 10.750300120048 5.25  L 10.3721488595438 6.41666666666667  C 10.3241296518607 6.57465277777778  10.3361344537815 6.71137152777778  10.4081632653061 6.82682291666667  C 10.4801920768307 6.94227430555555  10.6002400960384 7  10.7683073229292 7  L 21.7166866746699 7  C 21.8727490996399 7  22.0258103241297 6.94227430555555  22.1758703481393 6.82682291666667  C 22.3259303721489 6.71137152777778  22.4249699879952 6.57465277777778  22.4729891956783 6.41666666666667  L 22.8511404561825 5.25  C 22.8991596638655 5.09201388888889  22.8871548619448 4.95529513888889  22.8151260504202 4.83984375  C 22.7430972388956 4.72439236111111  22.6230492196879 4.66666666666667  22.4549819927971 5  L 11.5066026410564 5  C 11.3505402160864 4.66666666666667  11.1974789915966 4.72439236111111  11.047418967587 4.83984375  C 10.8973589435774 4.95529513888889  10.7983193277311 5.09201388888889  10.750300120048 5.25  Z M 9.25570228091236 9.91666666666667  L 8.87755102040816 11.0833333333333  C 8.82953181272509 11.2413194444444  8.84153661464586 11.3780381944444  8.91356542617047 11.4934895833333  C 8.98559423769508 11.6089409722222  9.10564225690276 11.6666666666667  9.27370948379352 12  L 20.2220888355342 12  C 20.3781512605042 11.6666666666667  20.531212484994 11.6089409722222  20.6812725090036 11.4934895833333  C 20.8313325330132 11.3780381944444  20.9303721488595 11.2413194444444  20.9783913565426 11.0833333333333  L 21.3565426170468 9.91666666666667  C 21.4045618247299 9.75868055555555  21.3925570228091 9.62196180555555  21.3205282112845 9.50651041666667  C 21.2484993997599 9.39105902777778  21.1284513805522 9.33333333333333  20.9603841536615 9.33333333333333  L 10.0120048019208 9.33333333333333  C 9.85594237695078 9.33333333333333  9.70288115246099 9.39105902777778  9.55282112845138 9.50651041666667  C 9.40276110444178 9.62196180555555  9.30372148859544 9.75868055555555  9.25570228091236 9.91666666666667  Z " fill-rule="nonzero" fill="#ffffff" stroke="none" transform="matrix(1 0 0 1 181 382 )" />
  </g>
</svg>