<?xml version="1.0" encoding="utf-8"?>
<svg version="1.1" xmlns:xlink="http://www.w3.org/1999/xlink" width="35px" height="30px" xmlns="http://www.w3.org/2000/svg">
  <g transform="matrix(1 0 0 1 -180 -57 )">
    <path d="M 26.5462239583333 13.9453125  C 26.8348524305556 14.2421875  26.9791666666667 14.59375  26.9791666666667 15  C 26.9791666666667 15.40625  26.8348524305556 15.7578125  26.5462239583333 16.0546875  L 14.150390625 28.8046875  C 13.8617621527778 29.1015625  13.5199652777778 29.25  13.125 29.25  C 12.7300347222222 29.25  12.3882378472222 29.1015625  12.099609375 28.8046875  C 11.8109809027778 28.5078125  11.6666666666667 28.15625  11.6666666666667 27.75  L 11.6666666666667 21  L 1.45833333333333 21  C 1.06336805555556 21  0.721571180555556 20.8515625  0.432942708333333 20.5546875  C 0.144314236111111 20.2578125  0 19.90625  0 19.5  L 0 10.5  C 0 10.09375  0.144314236111111 9.7421875  0.432942708333333 9.4453125  C 0.721571180555556 9.1484375  1.06336805555556 9  1.45833333333333 9  L 11.6666666666667 9  L 11.6666666666667 2.25  C 11.6666666666667 1.84375  11.8109809027778 1.4921875  12.099609375 1.1953125  C 12.3882378472222 0.898437499999999  12.7300347222222 0.750000000000001  13.125 0.750000000000001  C 13.5199652777778 0.750000000000001  13.8617621527778 0.898437499999999  14.150390625 1.1953125  L 26.5462239583333 13.9453125  Z M 33.0745442708333 1.98046875  C 34.3581814236111 3.30078125  35 4.89062499999999  35 6.75  L 35 23.25  C 35 25.109375  34.3581814236111 26.69921875  33.0745442708333 28.01953125  C 31.7909071180556 29.33984375  30.2452256944445 30  28.4375 30  L 21.1458333333333 30  C 20.9483506944445 30  20.7774522569445 29.92578125  20.6331380208333 29.77734375  C 20.4888237847222 29.62890625  20.4166666666667 29.453125  20.4166666666667 29.25  C 20.4166666666667 29.1875  20.4090711805556 29.03125  20.3938802083333 28.78125  C 20.3786892361111 28.53125  20.3748914930556 28.32421875  20.3824869791667 28.16015625  C 20.3900824652778 27.99609375  20.4128689236111 27.8125  20.4508463541667 27.609375  C 20.4888237847222 27.40625  20.5647786458333 27.25390625  20.6787109375 27.15234375  C 20.7926432291667 27.05078125  20.9483506944445 27  21.1458333333333 27  L 28.4375 27  C 29.4401041666667 27  30.2983940972222 26.6328125  31.0123697916667 25.8984375  C 31.7263454861111 25.1640625  32.0833333333333 24.28125  32 23.25  L 32 6.75  C 32.0833333333333 5.71875  31.7263454861111 4.8359375  31.0123697916667 4.1015625  C 30.2983940972222 3.3671875  29.4401041666667 3  28.4375 3  L 21.875 3  L 21.6243489583333 3  L 21.328125 3  C 21.328125 3  21.2407769097222 2.9921875  21.0660807291667 2.9765625  C 20.8913845486111 2.9609375  20.8040364583333 2.9375  20.8040364583333 2.90625  C 20.8040364583333 2.875  20.7432725694444 2.83203125  20.6217447916667 2.77734375  C 20.5002170138889 2.72265625  20.4470486111111 2.65234375  20.4622395833333 2.56640625  C 20.4774305555556 2.48046875  20.4622395833333 2.375  20.4166666666667 2.25  C 20.4166666666667 2.1875  20.4090711805556 2.03125  20.3938802083333 1.78125  C 20.3786892361111 1.53125  20.3748914930556 1.32421875  20.3824869791667 1.16015625  C 20.3900824652778 0.99609375  20.4128689236111 0.812499999999997  20.4508463541667 0.609374999999999  C 20.4888237847222 0.406249999999997  20.5647786458333 0.253906249999999  20.6787109375 0.152343750000001  C 20.7926432291667 0.0507812499999971  20.9483506944445 0  21.1458333333333 0  L 28.4375 0  C 30.2452256944445 0  31.7909071180556 0.660156249999996  33.0745442708333 1.98046875  Z " fill-rule="nonzero" fill="#ffffff" stroke="none" transform="matrix(1 0 0 1 180 57 )" />
  </g>
</svg>