<?xml version="1.0" encoding="utf-8"?>
<svg version="1.1" xmlns:xlink="http://www.w3.org/1999/xlink" width="30px" height="22px" xmlns="http://www.w3.org/2000/svg">
  <g transform="matrix(1 0 0 1 -58 -384 )">
    <path d="M 5.625 11  L 9.375 11  L 9.375 18.3333333333333  L 5.625 18.3333333333333  L 5.625 11  Z M 11.25 3.66666666666667  L 15 3.66666666666667  L 15 18.3333333333333  L 11.25 18.3333333333333  L 11.25 3.66666666666667  Z M 2 20  L 30 20  L 30 22  L 0 22  L 0 0  L 2 0  L 2 20  Z M 16.875 7.33333333333333  L 20.625 7.33333333333333  L 20.625 18.3333333333333  L 16.875 18.3333333333333  L 16.875 7.33333333333333  Z M 22 1.83333333333333  L 26 1.83333333333333  L 26 18.3333333333333  L 22 18.3333333333333  L 22 1.83333333333333  Z " fill-rule="nonzero" fill="#ffffff" stroke="none" transform="matrix(1 0 0 1 58 384 )" />
  </g>
</svg>