<?xml version="1.0" standalone="no"?>
<svg t="1710400631164" class="icon" viewBox="0 0 1024 1024" version="1.1" xmlns="http://www.w3.org/2000/svg" p-id="4449">
  <path d="M64 192.384v-128h128v64H128v64H64z m128 639.232v64h-128v-128h64v64h64z m639.232-639.232h-64v-64h128v128h-64v-64z m64 639.232v-64h64v128h-128v-64h64zM384 320H256V192h128v128z m384 0H640V192h128v128zM384 704H256V576h128v128z m384 0H640V576h128v128zM512 448H192V384h320v64z m320 0H576V384h256v64z m0 192H576v-64h256v64z m-320 0H192v-64h320v64z" p-id="4450"></path>
</svg> 