<?xml version="1.0" encoding="utf-8"?>
<svg version="1.1" xmlns:xlink="http://www.w3.org/1999/xlink" width="22px" height="31px" xmlns="http://www.w3.org/2000/svg">
  <g transform="matrix(1 0 0 1 -313 -378 )">
    <path d="M 13.3992210321324 30.7908380681818  C 13.2635507951964 30.9302793560606  13.1028886725089 31  12.9172346640701 31  L 9.23271665043817 31  C 9.04706264199935 31  8.88640051931191 30.9339488636364  8.75073028237585 30.8018465909091  C 8.61506004543979 30.6697443181818  8.54722492697176 30.500946969697  8.54722492697176 30.2954545454545  L 8.54722492697176 23.0298295454545  L 2.3777994157741 23.0298295454545  C 2.19214540733528 23.0298295454545  2.03148328464784 22.9637784090909  1.89581304771178 22.8316761363636  C 1.76014281077572 22.6995738636364  1.69230769230769 22.5307765151515  1.69230769230769 22.3252840909091  L 1.69230769230769 20.0575284090909  C 1.69230769230769 19.8667140151515  1.76014281077572 19.7015861742424  1.89581304771178 19.5621448863636  C 2.03148328464784 19.4227035984848  2.19214540733528 19.3529829545455  2.3777994157741 19.3529829545455  L 8.54722492697176 19.3529829545455  L 8.54722492697176 17.4815340909091  L 2.3777994157741 17.4815340909091  C 2.19214540733528 17.4815340909091  2.03148328464784 17.4154829545455  1.89581304771178 17.2833806818182  C 1.76014281077572 17.1512784090909  1.69230769230769 16.9824810606061  1.69230769230769 16.7769886363636  L 1.69230769230769 14.4872159090909  C 1.69230769230769 14.2964015151515  1.76014281077572 14.1312736742424  1.89581304771178 13.9918323863636  C 2.03148328464784 13.8523910984848  2.19214540733528 13.7826704545455  2.3777994157741 13.7826704545455  L 6.9620253164557 13.7826704545455  L 0.0856864654333009 1.05681818181818  C -0.0285621551444336 0.821969696969696  -0.0285621551444336 0.587121212121208  0.0856864654333009 0.352272727272727  C 0.228497241155469 0.117424242424242  0.428432327166504 0  0.685491723466407 0  L 4.8412852969815 0  C 5.11262577085362 0  5.31970139565076 0.132102272727273  5.46251217137293 0.396306818181819  L 10.0681596884129 9.75355113636363  C 10.339500162285 10.3113162878788  10.739370334307 11.2286931818182  11.2677702044791 12.5056818181818  C 11.4105809802012 12.1534090909091  11.6283674131775 11.6543560606061  11.921129503408 11.0085227272727  C 12.2138915936384 10.3626893939394  12.4102564102564 9.91500946969697  12.5102239532619 9.66548295454545  L 16.601752677702 0.418323863636365  C 16.7160012982798 0.139441287878785  16.9230769230769 0  17.2229795520935 0  L 21.3145082765336 0  C 21.5572865952613 0  21.7500811424862 0.117424242424242  21.8928919182084 0.352272727272727  C 22.0214216163583 0.55776515151515  22.0285621551444 0.785274621212119  21.9143135345667 1.03480113636363  L 15.2093476144109 13.7826704545455  L 19.8149951314508 13.7826704545455  C 20.0006491398896 13.7826704545455  20.1613112625771 13.8523910984848  20.2969814995131 13.9918323863636  C 20.4326517364492 14.1312736742424  20.5004868549172 14.2964015151515  20.5004868549172 14.4872159090909  L 20.5004868549172 16.7769886363636  C 20.5004868549172 16.9824810606061  20.4326517364492 17.1512784090909  20.2969814995131 17.2833806818182  C 20.1613112625771 17.4154829545455  20.0006491398896 17.4815340909091  19.8149951314508 17.4815340909091  L 13.6027263875365 17.4815340909091  L 13.6027263875365 19.3529829545455  L 19.8149951314508 19.3529829545455  C 20.0006491398896 19.3529829545455  20.1613112625771 19.4227035984848  20.2969814995131 19.5621448863636  C 20.4326517364492 19.7015861742424  20.5004868549172 19.8667140151515  20.5004868549172 20.0575284090909  L 20.5004868549172 22.3252840909091  C 20.5004868549172 22.5307765151515  20.4326517364492 22.6995738636364  20.2969814995131 22.8316761363636  C 20.1613112625771 22.9637784090909  20.0006491398896 23.0298295454545  19.8149951314508 23.0298295454545  L 13.6027263875365 23.0298295454545  L 13.6027263875365 30.2954545454545  C 13.6027263875365 30.4862689393939  13.5348912690685 30.651396780303  13.3992210321324 30.7908380681818  Z " fill-rule="nonzero" fill="#ffffff" stroke="none" transform="matrix(1 0 0 1 313 378 )" />
  </g>
</svg>