<?xml version="1.0" encoding="utf-8"?>
<svg version="1.1" xmlns:xlink="http://www.w3.org/1999/xlink" width="34px" height="40px" xmlns="http://www.w3.org/2000/svg">
  <g transform="matrix(1 0 0 1 -43 -231 )">
    <path d="M 33.2916666666667 2.85714285714286  L 31.1666666666667 2.85714285714286  C 31.1666666666667 6.74107142857143  30.380859375 10.1748511904762  28.8092447916667 13.1584821428571  C 27.2376302083333 16.1421130952381  25.2712673611111 18.422619047619  22.91015625 20  C 25.2712673611111 21.5773809523809  27.2376302083333 23.8578869047619  28.8092447916667 26.8415178571429  C 30.380859375 29.8251488095238  31.1666666666667 33.2589285714286  31.1666666666667 37.1428571428571  L 33.2916666666667 37.1428571428571  C 33.4982638888889 37.1428571428571  33.66796875 37.2098214285714  33.80078125 37.34375  C 33.93359375 37.4776785714286  34 37.6488095238095  34 37.8571428571429  L 34 39.2857142857143  C 34 39.4940476190476  33.93359375 39.6651785714286  33.80078125 39.7991071428571  C 33.66796875 39.9330357142857  33.4982638888889 40  33.2916666666667 40  L 0.708333333333333 40  C 0.501736111111111 40  0.33203125 39.9330357142857  0.19921875 39.7991071428571  C 0.06640625 39.6651785714286  0 39.4940476190476  0 39.2857142857143  L 0 37.8571428571429  C 0 37.6488095238095  0.06640625 37.4776785714286  0.19921875 37.34375  C 0.33203125 37.2098214285714  0.501736111111111 37.1428571428571  0.708333333333333 37.1428571428571  L 2.83333333333333 37.1428571428571  C 2.83333333333333 33.2589285714286  3.619140625 29.8251488095238  5.19075520833333 26.8415178571429  C 6.76236979166667 23.8578869047619  8.72873263888889 21.5773809523809  11.08984375 20  C 8.72873263888889 18.422619047619  6.76236979166667 16.1421130952381  5.19075520833333 13.1584821428571  C 3.619140625 10.1748511904762  2.83333333333333 6.74107142857143  2.83333333333333 2.85714285714286  L 0.708333333333333 2.85714285714286  C 0.501736111111111 2.85714285714286  0.33203125 2.79017857142857  0.19921875 2.65625  C 0.06640625 2.52232142857143  0 2.35119047619047  0 2.14285714285714  L 0 0.714285714285716  C 0 0.505952380952377  0.06640625 0.334821428571428  0.19921875 0.200892857142856  C 0.33203125 0.0669642857142838  0.501736111111111 0  0.708333333333333 0  L 33.2916666666667 0  C 33.4982638888889 0  33.66796875 0.0669642857142838  33.80078125 0.200892857142856  C 33.93359375 0.334821428571428  34 0.505952380952377  34 0.714285714285716  L 34 2.14285714285714  C 34 2.35119047619047  33.93359375 2.52232142857143  33.80078125 2.65625  C 33.66796875 2.79017857142857  33.4982638888889 2.85714285714286  33.2916666666667 2.85714285714286  Z M 28.1341145833333 6  C 28.2669270833333 4.80654761904762  28.3333333333333 3.85416666666667  28.3333333333333 3  L 5.66666666666667 3  C 5.66666666666667 3.83928571428572  5.73307291666667 4.79166666666667  5.86588541666667 6  L 28.1341145833333 6  Z M 5.66666666666667 37  L 28.3333333333333 37  C 28.3333333333333 35.2083333333333  28.0824652777778 33.3519345238095  27.5807291666667 31.5736607142857  C 27.0789930555556 29.7953869047619  26.4112413194444 28.2477678571429  25.5774739583333 26.9308035714286  C 24.7437065972222 25.6138392857143  23.8103298611111 24.4828869047619  22.77734375 23.5379464285714  C 21.7443576388889 22.5930059523809  20.6671006944444 21.8898809523809  19.5455729166667 21.4285714285714  L 14.4544270833333 21.4285714285714  C 13.3328993055556 21.8898809523809  12.2556423611111 22.5930059523809  11.22265625 23.5379464285714  C 10.1896701388889 24.4828869047619  9.25629340277778 25.6138392857143  8.42252604166667 26.9308035714286  C 7.58875868055556 28.2477678571429  6.92100694444444 29.7953869047619  6.41927083333333 31.5736607142857  C 5.91753472222222 33.3519345238095  5.66666666666667 35.2083333333333  5.66666666666667 37  Z " fill-rule="nonzero" fill="#3b7cff" stroke="none" transform="matrix(1 0 0 1 43 231 )" />
  </g>
</svg>