<?xml version="1.0" encoding="utf-8"?>
<svg version="1.1" xmlns:xlink="http://www.w3.org/1999/xlink" width="40px" height="40px" xmlns="http://www.w3.org/2000/svg">
  <g transform="matrix(1 0 0 1 -127 -231 )">
    <path d="M 27.3958333333333 27.3958333333333  C 26.9097222222222 27.8819444444444  26.6666666666667 28.4722222222222  26 29.1666666666667  L 26 40  L 2.5 40  C 1.80555555555556 40  1.21527777777778 39.7569444444444  0.729166666666667 39.2708333333333  C 0.243055555555556 38.7847222222222  0 38.1944444444444  0 37.5  L 0 2.5  C 0 1.80555555555555  0.243055555555556 1.21527777777777  0.729166666666667 0.729166666666665  C 1.21527777777778 0.243055555555554  1.80555555555556 0  2.5 0  L 37.5 0  C 38.1944444444444 0  38.7847222222222 0.243055555555554  39.2708333333333 0.729166666666665  C 39.7569444444444 1.21527777777777  40 1.80555555555555  40 2.5  L 40 26  L 29.1666666666667 26  C 28.4722222222222 26.6666666666667  27.8819444444444 26.9097222222222  27.3958333333333 27.3958333333333  Z M 30 39.921875  L 30 30  L 39.921875 30  C 39.6614583333333 31.4236111111111  39.0972222222222 32.5694444444444  38.2291666666667 33.4375  L 33.4375 38.2291666666667  C 32.5694444444444 39.0972222222222  31.4236111111111 39.6614583333333  30 39.921875  Z " fill-rule="nonzero" fill="#07c160" stroke="none" transform="matrix(1 0 0 1 127 231 )" />
  </g>
</svg>