<?xml version="1.0" encoding="utf-8"?>
<svg version="1.1" xmlns:xlink="http://www.w3.org/1999/xlink" width="36px" height="40px" xmlns="http://www.w3.org/2000/svg">
  <g transform="matrix(1 0 0 1 -308 -231 )">
    <path d="M 28.3846153846154 21.0044642857143  C 28.3846153846154 21.1979166666667  28.3197115384615 21.3690476190476  28.1899038461538 21.5178571428571  L 17.1129807692308 32.9464285714286  C 16.96875 33.0803571428571  16.8028846153846 33.1473214285714  16.6153846153846 33.1473214285714  C 16.4278846153846 33.1473214285714  16.2620192307692 33.0803571428571  16.1177884615385 32.9464285714286  L 9.88701923076923 26.5178571428571  C 9.75721153846154 26.3690476190476  9.69230769230769 26.1979166666667  9.69230769230769 26.0044642857143  C 9.69230769230769 25.8110119047619  9.75721153846154 25.6473214285714  9.88701923076923 25.5133928571429  L 10.8822115384615 24.4866071428571  C 11.0120192307692 24.3526785714286  11.1706730769231 24.2857142857143  11.3581730769231 24.2857142857143  C 11.5456730769231 24.2857142857143  11.7115384615385 24.3526785714286  11.8557692307692 24.4866071428571  L 16.6153846153846 29.3973214285714  L 26.2211538461538 19.4866071428571  C 26.3653846153846 19.3526785714286  26.53125 19.2857142857143  26.71875 19.2857142857143  C 26.90625 19.2857142857143  27.0649038461538 19.3526785714286  27.1947115384615 19.4866071428571  L 28.1899038461538 20.5133928571429  C 28.3197115384615 20.6473214285714  28.3846153846154 20.8110119047619  28.3846153846154 21.0044642857143  Z M 3 15  L 3 37  L 33 37  L 33 15  L 3 15  Z M 10.8822115384615 10.5133928571429  C 11.0120192307692 10.3794642857143  11.0769230769231 10.2083333333333  11.0769230769231 10  L 11.0769230769231 3.57142857142857  C 11.0769230769231 3.36309523809523  11.0120192307692 3.19196428571428  10.8822115384615 3.05803571428572  C 10.7524038461538 2.92410714285714  10.5865384615385 2.85714285714286  10.3846153846154 2.85714285714286  L 9 2.85714285714286  C 8.79807692307693 2.85714285714286  8.63221153846154 2.92410714285714  8.50240384615385 3.05803571428572  C 8.37259615384615 3.19196428571428  8.30769230769231 3.36309523809523  8.30769230769231 3.57142857142857  L 8.30769230769231 10  C 8.30769230769231 10.2083333333333  8.37259615384615 10.3794642857143  8.50240384615385 10.5133928571429  C 8.63221153846154 10.6473214285714  8.79807692307693 10.7142857142857  9 10.7142857142857  L 10.3846153846154 10.7142857142857  C 10.5865384615385 10.7142857142857  10.7524038461538 10.6473214285714  10.8822115384615 10.5133928571429  Z M 27.4975961538462 10.5133928571429  C 27.6274038461538 10.3794642857143  27.6923076923077 10.2083333333333  27.6923076923077 10  L 27.6923076923077 3.57142857142857  C 27.6923076923077 3.36309523809523  27.6274038461538 3.19196428571428  27.4975961538462 3.05803571428572  C 27.3677884615385 2.92410714285714  27.2019230769231 2.85714285714286  27 2.85714285714286  L 25.6153846153846 2.85714285714286  C 25.4134615384615 2.85714285714286  25.2475961538462 2.92410714285714  25.1177884615385 3.05803571428572  C 24.9879807692308 3.19196428571428  24.9230769230769 3.36309523809523  24.9230769230769 3.57142857142857  L 24.9230769230769 10  C 24.9230769230769 10.2083333333333  24.9879807692308 10.3794642857143  25.1177884615385 10.5133928571429  C 25.2475961538462 10.6473214285714  25.4134615384615 10.7142857142857  25.6153846153846 10.7142857142857  L 27 10.7142857142857  C 27.2019230769231 10.7142857142857  27.3677884615385 10.6473214285714  27.4975961538462 10.5133928571429  Z M 35.1778846153846 6.5625  C 35.7259615384615 7.12797619047619  36 7.79761904761905  36 8.57142857142857  L 36 37.1428571428571  C 36 37.9166666666667  35.7259615384615 38.5863095238095  35.1778846153846 39.1517857142857  C 34.6298076923077 39.7172619047619  33.9807692307692 40  33.2307692307692 40  L 2.76923076923077 40  C 2.01923076923077 40  1.37019230769231 39.7172619047619  0.822115384615385 39.1517857142857  C 0.274038461538462 38.5863095238095  0 37.9166666666667  0 37.1428571428571  L 0 8.57142857142857  C 0 7.79761904761905  0.274038461538462 7.12797619047619  0.822115384615385 6.5625  C 1.37019230769231 5.9970238095238  2.01923076923077 5.71428571428572  2.76923076923077 5.71428571428572  L 5.53846153846154 5.71428571428572  L 5.53846153846154 3.57142857142857  C 5.53846153846154 2.58928571428572  5.87740384615385 1.7485119047619  6.55528846153846 1.04910714285714  C 7.23317307692308 0.349702380952381  8.04807692307692 0  9 0  L 10.3846153846154 0  C 11.3365384615385 0  12.1514423076923 0.349702380952381  12.8293269230769 1.04910714285714  C 13.5072115384615 1.7485119047619  13.8461538461538 2.58928571428572  13.8461538461538 3.57142857142857  L 13.8461538461538 5.71428571428572  L 22.1538461538462 5.71428571428572  L 22.1538461538462 3.57142857142857  C 22.1538461538462 2.58928571428572  22.4927884615385 1.7485119047619  23.1706730769231 1.04910714285714  C 23.8485576923077 0.349702380952381  24.6634615384615 0  25.6153846153846 0  L 27 0  C 27.9519230769231 0  28.7668269230769 0.349702380952381  29.4447115384615 1.04910714285714  C 30.1225961538462 1.7485119047619  30.4615384615385 2.58928571428572  30.4615384615385 3.57142857142857  L 30.4615384615385 5.71428571428572  L 33.2307692307692 5.71428571428572  C 33.9807692307692 5.71428571428572  34.6298076923077 5.9970238095238  35.1778846153846 6.5625  Z " fill-rule="nonzero" fill="#3b7cff" stroke="none" transform="matrix(1 0 0 1 308 231 )" />
  </g>
</svg>