<?xml version="1.0" standalone="no"?><!DOCTYPE svg PUBLIC "-//W3C//DTD SVG 1.1//EN" "http://www.w3.org/Graphics/SVG/1.1/DTD/svg11.dtd"><svg class="icon" width="200px" height="200.00px" viewBox="0 0 1024 1024" version="1.1" xmlns="http://www.w3.org/2000/svg"><path fill="#3b7cff" d="M273.655172 356.634483h458.151725c15.006897 0 26.482759-13.241379 26.482758-30.013793 0-15.889655-12.358621-30.013793-26.482758-30.013793H273.655172c-15.006897 0-26.482759 13.241379-26.482758 30.013793-0.882759 15.889655 11.475862 30.013793 26.482758 30.013793zM564.965517 530.537931c0-15.889655-10.593103-30.013793-23.834483-30.013793H271.889655c-13.241379 0-23.834483 14.124138-23.834483 30.013793 0 15.889655 10.593103 30.013793 23.834483 30.013793h269.241379c13.241379 0 23.834483-13.241379 23.834483-30.013793zM859.806897 82.096552H164.193103c-42.372414 0-86.510345 45.903448-86.510344 89.15862v679.724138c0 53.848276 42.372414 97.986207 95.337931 97.986207h256c18.537931 0 34.427586-14.124138 36.193103-32.662069 0.882759-9.710345-2.648276-19.42069-9.710345-26.482758-6.17931-7.062069-15.006897-10.593103-24.717241-10.593104H177.434483c-17.655172 0-31.77931-14.124138-31.779311-31.77931V239.227586c0.882759-51.2 7.062069-87.393103 80.331035-87.393103h624.110345c15.889655 0 29.131034 11.475862 30.896551 28.248276V459.034483c0 8.827586 3.531034 17.655172 9.710345 23.834483 6.17931 6.17931 14.124138 9.710345 22.951724 9.710344 3.531034 0 7.062069-0.882759 10.593104-1.765517 13.241379-4.413793 22.068966-18.537931 22.068965-33.544827V172.137931c0.882759-43.255172-44.137931-90.041379-86.510344-90.041379zM932.193103 700.910345L766.234483 542.896552c-6.17931-5.296552-13.241379-7.944828-21.186207-7.944828-7.944828 0-15.889655 3.531034-22.068966 8.827586l-0.882758 0.882759h-0.882759s-0.882759 1.765517-1.765517 1.765517c-9.710345 11.475862-8.827586 28.248276 1.765517 37.075862l115.641379 110.344828H512.882759c-15.006897 0-27.365517 13.241379-27.365518 29.131034 0 15.889655 12.358621 29.131034 27.365518 29.131035h326.620689L722.97931 862.455172l-2.648276 2.648276c-9.710345 11.475862-8.827586 28.248276 1.765518 37.958621 6.17931 6.17931 14.124138 9.710345 22.068965 9.710345 7.944828 0 15.889655-2.648276 21.186207-8.827586l164.193104-156.248276 4.413793-4.413793c10.593103-8.827586 12.358621-23.834483 4.413793-35.310345-0.882759-2.648276-3.531034-4.413793-6.179311-7.062069zM271.006897 693.848276c-13.241379 0-23.834483 14.124138-23.834483 30.013793s10.593103 30.013793 23.834483 30.013793H370.758621c13.241379 0 23.834483-14.124138 23.834482-30.013793s-10.593103-30.013793-23.834482-30.013793H271.006897z" /></svg>